<svg width="25" height="25" viewBox="0 0 25 25" fill="none" xmlns="http://www.w3.org/2000/svg">
<g clip-path="url(#clip0_26533_3705)">
<path d="M3.5 3.5H21.5C21.7652 3.5 22.0196 3.60536 22.2071 3.79289C22.3946 3.98043 22.5 4.23478 22.5 4.5V20.5C22.5 20.7652 22.3946 21.0196 22.2071 21.2071C22.0196 21.3946 21.7652 21.5 21.5 21.5H3.5C3.23478 21.5 2.98043 21.3946 2.79289 21.2071C2.60536 21.0196 2.5 20.7652 2.5 20.5V4.5C2.5 4.23478 2.60536 3.98043 2.79289 3.79289C2.98043 3.60536 3.23478 3.5 3.5 3.5ZM12.5 15.5V17.5H18.5V15.5H12.5ZM8.914 12.5L6.086 15.328L7.5 16.743L11.743 12.5L7.5 8.257L6.086 9.672L8.914 12.5Z" fill="#62748E"/>
</g>
<defs>
<clipPath id="clip0_26533_3705">
<rect width="24" height="24" fill="white" transform="translate(0.5 0.5)"/>
</clipPath>
</defs>
</svg>
