<svg width="25" height="25" viewBox="0 0 25 25" fill="none" xmlns="http://www.w3.org/2000/svg">
<g clip-path="url(#clip0_26533_3742)">
<path d="M17.5 4.5C19.0913 4.5 20.6174 5.13214 21.7426 6.25736C22.8679 7.38258 23.5 8.9087 23.5 10.5V14.5C23.5 16.0913 22.8679 17.6174 21.7426 18.7426C20.6174 19.8679 19.0913 20.5 17.5 20.5H7.5C5.9087 20.5 4.38258 19.8679 3.25736 18.7426C2.13214 17.6174 1.5 16.0913 1.5 14.5V10.5C1.5 8.9087 2.13214 7.38258 3.25736 6.25736C4.38258 5.13214 5.9087 4.5 7.5 4.5H17.5ZM10.5 9.5H8.5V11.5H6.5V13.5H8.499L8.5 15.5H10.5L10.499 13.5H12.5V11.5H10.5V9.5ZM18.5 13.5H16.5V15.5H18.5V13.5ZM16.5 9.5H14.5V11.5H16.5V9.5Z" fill="#62748E"/>
</g>
<defs>
<clipPath id="clip0_26533_3742">
<rect width="24" height="24" fill="white" transform="translate(0.5 0.5)"/>
</clipPath>
</defs>
</svg>
