<svg width="25" height="25" viewBox="0 0 25 25" fill="none" xmlns="http://www.w3.org/2000/svg">
<g clip-path="url(#clip0_26533_3732)">
<path d="M5.5 20.5H19.5V22.5H5.5V20.5ZM12.5 18.5C10.3783 18.5 8.34344 17.6571 6.84315 16.1569C5.34285 14.6566 4.5 12.6217 4.5 10.5C4.5 8.37827 5.34285 6.34344 6.84315 4.84315C8.34344 3.34285 10.3783 2.5 12.5 2.5C14.6217 2.5 16.6566 3.34285 18.1569 4.84315C19.6571 6.34344 20.5 8.37827 20.5 10.5C20.5 12.6217 19.6571 14.6566 18.1569 16.1569C16.6566 17.6571 14.6217 18.5 12.5 18.5Z" fill="#CAD5E2"/>
</g>
<defs>
<clipPath id="clip0_26533_3732">
<rect width="24" height="24" fill="white" transform="translate(0.5 0.5)"/>
</clipPath>
</defs>
</svg>
