<svg width="16" height="17" viewBox="0 0 16 17" fill="none" xmlns="http://www.w3.org/2000/svg">
<path d="M1.99999 2.5H14C14.1768 2.5 14.3464 2.57024 14.4714 2.69526C14.5964 2.82029 14.6667 2.98986 14.6667 3.16667V13.8333C14.6667 14.0101 14.5964 14.1797 14.4714 14.3047C14.3464 14.4298 14.1768 14.5 14 14.5H1.99999C1.82318 14.5 1.65361 14.4298 1.52859 14.3047C1.40357 14.1797 1.33333 14.0101 1.33333 13.8333V3.16667C1.33333 2.98986 1.40357 2.82029 1.52859 2.69526C1.65361 2.57024 1.82318 2.5 1.99999 2.5ZM8.04 8.28867L3.76533 4.65867L2.902 5.67467L8.04866 10.0447L13.1027 5.67133L12.2307 4.66267L8.04066 8.28867H8.04Z" fill="#62748E"/>
</svg>
