<svg width="16" height="17" viewBox="0 0 16 17" fill="none" xmlns="http://www.w3.org/2000/svg">
<path d="M1.99999 2.5H14C14.3682 2.5 14.6667 2.79848 14.6667 3.16667V13.8333C14.6667 14.2015 14.3682 14.5 14 14.5H1.99999C1.63181 14.5 1.33333 14.2015 1.33333 13.8333V3.16667C1.33333 2.79848 1.63181 2.5 1.99999 2.5ZM4.66666 10.8333V8.16667L6 9.5L7.33333 8.16667V10.8333H8.66666V6.16667H7.33333L6 7.5L4.66666 6.16667H3.33333V10.8333H4.66666ZM12 8.83333V6.16667H10.6667V8.83333H9.33333L11.3333 10.8333L13.3333 8.83333H12Z" fill="#62748E"/>
</svg>
