<svg width="16" height="17" viewBox="0 0 16 17" fill="none" xmlns="http://www.w3.org/2000/svg">
<path d="M14 11.4467V13.804C14.0001 13.9728 13.9361 14.1353 13.8211 14.2588C13.706 14.3823 13.5484 14.4575 13.38 14.4693C13.0887 14.4893 12.8507 14.5 12.6667 14.5C6.77533 14.5 2 9.72467 2 3.83333C2 3.64933 2.01 3.41133 2.03067 3.12C2.04248 2.95163 2.11772 2.79401 2.2412 2.67894C2.36468 2.56387 2.52722 2.49992 2.696 2.5H5.05333C5.13603 2.49992 5.2158 2.53057 5.27715 2.58601C5.33851 2.64145 5.37706 2.71772 5.38533 2.8C5.40067 2.95333 5.41467 3.07533 5.428 3.168C5.56049 4.09262 5.832 4.99189 6.23333 5.83533C6.29667 5.96867 6.25533 6.128 6.13533 6.21333L4.69667 7.24133C5.5763 9.29097 7.2097 10.9244 9.25933 11.804L10.286 10.368C10.328 10.3093 10.3892 10.2673 10.459 10.2491C10.5288 10.2309 10.6028 10.2379 10.668 10.2687C11.5113 10.6692 12.4104 10.9401 13.3347 11.072C13.4273 11.0853 13.5493 11.1 13.7013 11.1147C13.7835 11.1231 13.8596 11.1617 13.9149 11.2231C13.9702 11.2844 14.0008 11.3641 14.0007 11.4467H14Z" fill="#62748E"/>
</svg>
