<svg width="16" height="17" viewBox="0 0 16 17" fill="none" xmlns="http://www.w3.org/2000/svg">
<g clip-path="url(#clip0_28569_477)">
<path d="M3.28605 13.214C2.66607 12.5957 2.1744 11.8609 1.8393 11.0519C1.5042 10.2429 1.33226 9.37568 1.33338 8.50004C1.33338 4.81804 4.31805 1.83337 8.00005 1.83337C11.682 1.83337 14.6667 4.81804 14.6667 8.50004C14.6667 12.182 11.682 15.1667 8.00005 15.1667H1.33338L3.28605 13.214ZM5.33338 9.16671C5.33338 9.87395 5.61433 10.5522 6.11443 11.0523C6.61452 11.5524 7.2928 11.8334 8.00005 11.8334C8.70729 11.8334 9.38557 11.5524 9.88566 11.0523C10.3858 10.5522 10.6667 9.87395 10.6667 9.16671H5.33338Z" fill="#90A1B9"/>
</g>
<defs>
<clipPath id="clip0_28569_477">
<rect width="16" height="16" fill="white" transform="translate(0 0.5)"/>
</clipPath>
</defs>
</svg>
